<svg xmlns="http://www.w3.org/2000/svg" viewBox="0 0 32 32" fill="none">
  <circle cx="16" cy="16" r="16" fill="#4A154B"/>
  <path d="M10.2 18.6a1.6 1.6 0 1 1-1.6-1.6h1.6v1.6zm.8 0a1.6 1.6 0 1 1 3.2 0v4a1.6 1.6 0 1 1-3.2 0v-4z" fill="#E01E5A"/>
  <path d="M13.4 10.2a1.6 1.6 0 1 1 1.6-1.6v1.6h-1.6zm0 .8a1.6 1.6 0 1 1 0 3.2h-4a1.6 1.6 0 1 1 0-3.2h4z" fill="#36C5F0"/>
  <path d="M21.8 13.4a1.6 1.6 0 1 1 1.6 1.6h-1.6v-1.6zm-.8 0a1.6 1.6 0 1 1-3.2 0v-4a1.6 1.6 0 1 1 3.2 0v4z" fill="#2EB67D"/>
  <path d="M18.6 21.8a1.6 1.6 0 1 1-1.6 1.6v-1.6h1.6zm0-.8a1.6 1.6 0 1 1 0-3.2h4a1.6 1.6 0 1 1 0 3.2h-4z" fill="#ECB22E"/>
</svg>
